<svg id="e0044lx9zeyybd1" xmlns="http://www.w3.org/2000/svg" xmlns:xlink="http://www.w3.org/1999/xlink" viewBox="0 0 1438 570" shape-rendering="geometricPrecision" text-rendering="geometricPrecision"><style><![CDATA[#e0044lx9zeyybd6_tr {animation: e0044lx9zeyybd6_tr__tr 15000ms linear infinite normal forwards}@keyframes e0044lx9zeyybd6_tr__tr { 0% {transform: translate(723.091459px,1080.990106px) rotate(40deg)} 100% {transform: translate(723.091459px,1080.990106px) rotate(-120deg)} }]]></style><rect id="e0044lx9zeyybd2" display="none" width="1438" height="600" rx="0" ry="0" transform="matrix(1 0 0 1 1.38943457000039 -0.84088233000028)" fill="rgb(22,30,45)" stroke="none" stroke-width="1"/><g id="e0044lx9zeyybd3" transform="matrix(1 0 0 1 -1 136.99010618000057)"><g id="e0044lx9zeyybd4" transform="matrix(1 0 0 1 0 -54)"><path id="e0044lx9zeyybd5" d="M1673,1008C1673,481.672633,1246.327370,55,720,55C193.672633,55,-233,481.672633,-233,1008" fill="none" fill-rule="evenodd" stroke="rgb(100,105,114)" stroke-width="2" stroke-linecap="round" stroke-linejoin="round" stroke-dasharray="7,7"/></g></g><g id="e0044lx9zeyybd6_tr" transform="translate(723.091459,1080.990106) rotate(40)"><g id="e0044lx9zeyybd6" transform="translate(686.785610,-751.818116)"><g id="e0044lx9zeyybd7" transform="matrix(1 0 0 1 -1315 -160)"><g id="e0044lx9zeyybd8" transform="matrix(1 0 0 1 1316 161)"><g id="e0044lx9zeyybd9" transform="matrix(1 0 0 1 0.75212300000000 0.73756600000000)"><g id="e0044lx9zeyybd10" transform="matrix(1 0 0 1 12.11110000000000 15.13890000000000)"><path id="e0044lx9zeyybd11" d="M30.202083,68.427778L13.170833,51.396528C12.565278,50.790972,12.565278,49.882639,13.170833,49.277083L52.531944,9.915972C53.137500,9.310417,54.045833,9.310417,54.651389,9.915972L71.682639,26.947222C72.288194,27.552778,72.288194,28.461111,71.682639,29.066667L32.321528,68.427778C31.791667,69.033333,30.807639,69.033333,30.202083,68.427778Z" fill="rgb(22,30,45)" fill-rule="evenodd" stroke="rgb(255,255,255)" stroke-width="2" stroke-linejoin="round"/><path id="e0044lx9zeyybd12" d="M78.040972,11.884028L80.538889,14.381944C81.447222,15.290278,81.447222,16.728472,80.538889,17.561111L78.343750,19.756250C77.435417,20.664583,75.997222,20.664583,75.164583,19.756250L61.842361,6.434028C60.934028,5.525694,60.934028,4.087500,61.842361,3.254861L64.037500,1.059722C64.945833,0.151389,66.384028,0.151389,67.216667,1.059722L69.714583,3.557639" fill="none" fill-rule="evenodd" stroke="rgb(255,255,255)" stroke-width="2" stroke-linejoin="round"/><g id="e0044lx9zeyybd13" transform="matrix(1 0 0 1 60.55560000000000 9.84028000000000)"><line id="e0044lx9zeyybd14" x1="5.298611" y1="0.454167" x2="0.075694" y2="5.601389" fill="none" fill-rule="evenodd" stroke="rgb(255,255,255)" stroke-width="2" stroke-linejoin="round"/><line id="e0044lx9zeyybd15" x1="10.824306" y1="5.904167" x2="5.601389" y2="11.127083" fill="none" fill-rule="evenodd" stroke="rgb(255,255,255)" stroke-width="2" stroke-linejoin="round"/></g><g id="e0044lx9zeyybd16" transform="matrix(1 0 0 1 13.62500000000000 56.77080000000000)"><line id="e0044lx9zeyybd17" x1="5.450000" y1="0.302778" x2="0.227083" y2="5.450000" fill="none" fill-rule="evenodd" stroke="rgb(255,255,255)" stroke-width="2" stroke-linejoin="round"/><line id="e0044lx9zeyybd18" x1="10.975694" y1="5.752778" x2="5.752778" y2="10.975694" fill="none" fill-rule="evenodd" stroke="rgb(255,255,255)" stroke-width="2" stroke-linejoin="round"/></g><line id="e0044lx9zeyybd19" x1="16.274306" y1="65.324306" x2="6.812500" y2="74.861806" fill="none" fill-rule="evenodd" stroke="rgb(255,255,255)" stroke-width="2" stroke-linejoin="round"/><line id="e0044lx9zeyybd20" x1="72.439583" y1="6.358333" x2="75.315972" y2="9.159028" fill="none" fill-rule="evenodd" stroke="rgb(255,255,255)" stroke-width="2" stroke-linejoin="round"/><line id="e0044lx9zeyybd21" x1="49.504167" y1="24.373611" x2="21.875694" y2="52.077778" fill="none" fill-rule="evenodd" stroke="rgb(82,127,255)" stroke-width="2" stroke-linejoin="round"/><line id="e0044lx9zeyybd22" x1="52.380556" y1="21.572917" x2="55.181250" y2="18.696528" fill="none" fill-rule="evenodd" stroke="rgb(82,127,255)" stroke-width="2" stroke-linejoin="round"/><path id="e0044lx9zeyybd23" d="M7.796528,76.678472L21.194444,77.056944L21.194444,77.056944C24.752083,73.499306,21.572917,70.774306,16.198611,65.400000C10.824306,60.025694,8.250694,56.695139,4.541667,60.404167L4.920139,73.877778" fill="none" fill-rule="evenodd" stroke="rgb(255,255,255)" stroke-width="2" stroke-linejoin="round"/><circle id="e0044lx9zeyybd24" r="4.011810" transform="matrix(1 0 0 1 4.23889000000000 78.19240000000001)" fill="none" fill-rule="evenodd" stroke="rgb(255,255,255)" stroke-width="2" stroke-linejoin="round"/></g><g id="e0044lx9zeyybd25" transform="matrix(1 0 0 1 0 18.92360000000000)"><path id="e0044lx9zeyybd26" d="M78.116667,89.470833L55.484028,66.838194C54.878472,66.232639,54.878472,65.324306,55.484028,64.718750L64.415972,55.786806C65.021528,55.181250,65.929861,55.181250,66.535417,55.786806L89.168056,78.419444C89.773611,79.025000,89.773611,79.933333,89.168056,80.538889L80.236111,89.470833C79.706250,90.076389,78.722222,90.076389,78.116667,89.470833Z" fill="none" fill-rule="evenodd" stroke="rgb(255,255,255)" stroke-width="2" stroke-linejoin="round"/><path id="e0044lx9zeyybd27" d="M23.086806,34.440972L0.454167,11.808333C-0.151389,11.202778,-0.151389,10.294444,0.454167,9.688889L9.386111,0.756944C9.991667,0.151389,10.900000,0.151389,11.505556,0.756944L34.138194,23.389583C34.743750,23.995139,34.743750,24.903472,34.138194,25.509028L25.206250,34.440972C24.600694,35.046528,23.692361,35.046528,23.086806,34.440972Z" fill="none" fill-rule="evenodd" stroke="rgb(255,255,255)" stroke-width="2" stroke-linejoin="round"/><line id="e0044lx9zeyybd28" x1="54.500000" y1="54.802778" x2="59.950000" y2="60.252778" fill="none" fill-rule="evenodd" stroke="rgb(255,255,255)" stroke-width="2" stroke-linejoin="round"/><line id="e0044lx9zeyybd29" x1="29.142361" y1="29.445139" x2="35.273611" y2="35.576389" fill="none" fill-rule="evenodd" stroke="rgb(255,255,255)" stroke-width="2" stroke-linejoin="round"/><line id="e0044lx9zeyybd30" x1="23.843750" y1="22.102778" x2="17.788194" y2="28.158333" fill="none" fill-rule="evenodd" stroke="rgb(255,255,255)" stroke-width="2" stroke-linejoin="round"/><line id="e0044lx9zeyybd31" x1="18.318056" y1="16.652778" x2="12.338194" y2="22.632639" fill="none" fill-rule="evenodd" stroke="rgb(255,255,255)" stroke-width="2" stroke-linejoin="round"/><line id="e0044lx9zeyybd32" x1="12.868056" y1="11.127083" x2="6.812500" y2="17.182639" fill="none" fill-rule="evenodd" stroke="rgb(255,255,255)" stroke-width="2" stroke-linejoin="round"/><line id="e0044lx9zeyybd33" x1="78.949306" y1="77.056944" x2="72.893750" y2="83.112500" fill="none" fill-rule="evenodd" stroke="rgb(255,255,255)" stroke-width="2" stroke-linejoin="round"/><line id="e0044lx9zeyybd34" x1="73.499306" y1="71.606944" x2="67.443750" y2="77.586806" fill="none" fill-rule="evenodd" stroke="rgb(255,255,255)" stroke-width="2" stroke-linejoin="round"/><line id="e0044lx9zeyybd35" x1="67.973611" y1="66.081250" x2="61.993750" y2="72.136806" fill="none" fill-rule="evenodd" stroke="rgb(255,255,255)" stroke-width="2" stroke-linejoin="round"/></g><g id="e0044lx9zeyybd36" transform="matrix(1 0 0 1 18.92360000000000 0)"><path id="e0044lx9zeyybd37" d="M78.495139,89.168056L55.862500,66.535417C55.256944,65.929861,55.256944,65.021528,55.862500,64.415972L64.794444,55.484028C65.400000,54.878472,66.308333,54.878472,66.913889,55.484028L89.546528,78.116667C90.152083,78.722222,90.152083,79.630556,89.546528,80.236111L80.614583,89.168056C80.009028,89.773611,79.100694,89.773611,78.495139,89.168056Z" fill="none" fill-rule="evenodd" stroke="rgb(255,255,255)" stroke-width="2" stroke-linejoin="round"/><path id="e0044lx9zeyybd38" d="M23.389583,34.062500L0.756944,11.505556C0.151389,10.900000,0.151389,9.991667,0.756944,9.386111L9.688889,0.454167C10.294444,-0.151389,11.202778,-0.151389,11.808333,0.454167L34.440972,23.086806C35.046528,23.692361,35.046528,24.600694,34.440972,25.206250L25.584722,34.062500C24.979167,34.668056,23.995139,34.668056,23.389583,34.062500Z" fill="none" fill-rule="evenodd" stroke="rgb(255,255,255)" stroke-width="2" stroke-linejoin="round"/><line id="e0044lx9zeyybd39" x1="54.878472" y1="54.500000" x2="60.328472" y2="59.950000" fill="none" fill-rule="evenodd" stroke="rgb(255,255,255)" stroke-width="2" stroke-linejoin="round"/><line id="e0044lx9zeyybd40" x1="29.445139" y1="29.066667" x2="35.727778" y2="35.349306" fill="none" fill-rule="evenodd" stroke="rgb(255,255,255)" stroke-width="2" stroke-linejoin="round"/><line id="e0044lx9zeyybd41" x1="24.600694" y1="21.421528" x2="17.712500" y2="28.309722" fill="none" fill-rule="evenodd" stroke="rgb(255,255,255)" stroke-width="2" stroke-linejoin="round"/><line id="e0044lx9zeyybd42" x1="19.150694" y1="15.971528" x2="12.111111" y2="22.935417" fill="none" fill-rule="evenodd" stroke="rgb(255,255,255)" stroke-width="2" stroke-linejoin="round"/><line id="e0044lx9zeyybd43" x1="13.625000" y1="10.445833" x2="6.736806" y2="17.409722" fill="none" fill-rule="evenodd" stroke="rgb(255,255,255)" stroke-width="2" stroke-linejoin="round"/><line id="e0044lx9zeyybd44" x1="79.554861" y1="76.375694" x2="72.590972" y2="83.339583" fill="none" fill-rule="evenodd" stroke="rgb(255,255,255)" stroke-width="2" stroke-linejoin="round"/><line id="e0044lx9zeyybd45" x1="74.029167" y1="70.925694" x2="67.216667" y2="77.738194" fill="none" fill-rule="evenodd" stroke="rgb(255,255,255)" stroke-width="2" stroke-linejoin="round"/><line id="e0044lx9zeyybd46" x1="68.579167" y1="65.400000" x2="61.690972" y2="72.288194" fill="none" fill-rule="evenodd" stroke="rgb(255,255,255)" stroke-width="2" stroke-linejoin="round"/></g></g></g></g></g></g></svg>