<svg id="eidnqzl3n1y1" xmlns="http://www.w3.org/2000/svg" xmlns:xlink="http://www.w3.org/1999/xlink" viewBox="0 0 1438 570" shape-rendering="geometricPrecision" text-rendering="geometricPrecision"><style><![CDATA[#eidnqzl3n1y9 {animation: eidnqzl3n1y9_c_o 15000ms linear infinite normal forwards}@keyframes eidnqzl3n1y9_c_o { 0% {opacity: 1} 37.333333% {opacity: 1} 39.333333% {opacity: 0.340000} 41.333333% {opacity: 1} 63.533333% {opacity: 1} 65.333333% {opacity: 0.360000} 67.333333% {opacity: 1} 93.333333% {opacity: 1} 95.333333% {opacity: 0.360000} 97.333333% {opacity: 1} 100% {opacity: 1} }#eidnqzl3n1y10 {animation: eidnqzl3n1y10_c_o 15000ms linear infinite normal forwards}@keyframes eidnqzl3n1y10_c_o { 0% {opacity: 1} 22.666667% {opacity: 1} 24% {opacity: 0.480000} 25.333333% {opacity: 1} 78% {opacity: 1} 79.333333% {opacity: 0.480000} 80.666667% {opacity: 1} 100% {opacity: 1} }#eidnqzl3n1y11 {animation: eidnqzl3n1y11_c_o 15000ms linear infinite normal forwards}@keyframes eidnqzl3n1y11_c_o { 0% {opacity: 1} 1.333333% {opacity: 1} 2.666667% {opacity: 0.160000} 4% {opacity: 1} 42% {opacity: 1} 43.333333% {opacity: 0.240000} 44.666667% {opacity: 1} 68.666667% {opacity: 1} 70% {opacity: 0.120000} 71.333333% {opacity: 1} 100% {opacity: 1} }#eidnqzl3n1y12 {animation: eidnqzl3n1y12_c_o 15000ms linear infinite normal forwards}@keyframes eidnqzl3n1y12_c_o { 0% {opacity: 1} 16% {opacity: 1} 17.333333% {opacity: 0.480000} 18.666667% {opacity: 1} 50% {opacity: 1} 51.333333% {opacity: 0.620000} 52.666667% {opacity: 1} 100% {opacity: 1} }#eidnqzl3n1y14 {animation: eidnqzl3n1y14_c_o 15000ms linear infinite normal forwards}@keyframes eidnqzl3n1y14_c_o { 0% {opacity: 1} 11.333333% {opacity: 1} 12.666667% {opacity: 0.320000} 14% {opacity: 1} 32.533333% {opacity: 1} 33.866667% {opacity: 0.380000} 35.333333% {opacity: 1} 59% {opacity: 1} 60.666667% {opacity: 0.440000} 62% {opacity: 1} 86.933333% {opacity: 1} 88.666667% {opacity: 0.340000} 90% {opacity: 1} 100% {opacity: 1} }#eidnqzl3n1y15 {animation: eidnqzl3n1y15_c_o 15000ms linear infinite normal forwards}@keyframes eidnqzl3n1y15_c_o { 0% {opacity: 1} 20% {opacity: 1} 21.333333% {opacity: 0} 22.666667% {opacity: 1} 84% {opacity: 1} 85.333333% {opacity: 0.600000} 86.666667% {opacity: 1} 100% {opacity: 1} }#eidnqzl3n1y16 {animation: eidnqzl3n1y16_c_o 15000ms linear infinite normal forwards}@keyframes eidnqzl3n1y16_c_o { 0% {opacity: 1} 52.666667% {opacity: 1} 54% {opacity: 0.220000} 55.333333% {opacity: 1} 100% {opacity: 1} }#eidnqzl3n1y50_tr {animation: eidnqzl3n1y50_tr__tr 15000ms linear infinite normal forwards}@keyframes eidnqzl3n1y50_tr__tr { 0% {transform: translate(723.091459px,1080.990106px) rotate(40deg)} 100% {transform: translate(723.091459px,1080.990106px) rotate(-120deg)} }]]></style><rect id="eidnqzl3n1y2" display="none" width="1438" height="600" rx="0" ry="0" transform="matrix(1 0 0 1 1.38943457000039 -0.84088233000028)" fill="rgb(22,30,45)" stroke="none" stroke-width="1"/><g id="eidnqzl3n1y3" transform="matrix(1 0 0 1 -1 136.99010618000057)"><g id="eidnqzl3n1y4" transform="matrix(1 0 0 1 0 -54)"><path id="eidnqzl3n1y5" d="M1673,1008C1673,481.672633,1246.327370,55,720,55C193.672633,55,-233,481.672633,-233,1008" fill="none" fill-rule="evenodd" stroke="rgb(100,105,114)" stroke-width="2" stroke-linecap="round" stroke-linejoin="round" stroke-dasharray="7,7"/></g></g><g id="eidnqzl3n1y6" transform="matrix(1 0 0 1 538.31381456500071 230.52573644999990)"><g id="eidnqzl3n1y7" transform="matrix(1 0 0 1 -534 -163)"><g id="eidnqzl3n1y8" transform="matrix(1 0 0 1 535.50599999999997 164.53200000000001)"><path id="eidnqzl3n1y9" d="M720.215190,329.430380L720.215190,329.430380C720.215190,325.379747,716.924051,322.215190,713,322.215190L713,322.215190L713,322.215190C717.050633,322.215190,720.215190,318.924051,720.215190,315L720.215190,315L720.215190,315C720.215190,319.050633,723.506329,322.215190,727.430380,322.215190L727.430380,322.215190L727.430380,322.215190C723.506329,322.215190,720.215190,325.506329,720.215190,329.430380L720.215190,329.430380Z" fill="none" fill-rule="evenodd" stroke="rgb(82,127,255)" stroke-width="2" stroke-linejoin="round"/><path id="eidnqzl3n1y10" d="M276.772152,134.493671L276.772152,134.493671C276.772152,130.443038,273.481013,127.278481,269.556962,127.278481L269.556962,127.278481L269.556962,127.278481C273.607595,127.278481,276.772152,123.987342,276.772152,120.063291L276.772152,120.063291L276.772152,120.063291C276.772152,124.113924,280.063291,127.278481,283.987342,127.278481L283.987342,127.278481L283.987342,127.278481C279.936709,127.278481,276.772152,130.443038,276.772152,134.493671L276.772152,134.493671Z" fill="none" fill-rule="evenodd" stroke="rgb(82,127,255)" stroke-width="2" stroke-linejoin="round"/><path id="eidnqzl3n1y11" d="M272.215190,67.531646L272.215190,67.531646C272.215190,63.481013,268.924051,60.316456,265,60.316456L265,60.316456L265,60.316456C269.050633,60.316456,272.215190,57.025317,272.215190,53.101266L272.215190,53.101266L272.215190,53.101266C272.215190,57.151899,275.506329,60.316456,279.430380,60.316456L279.430380,60.316456L279.430380,60.316456C275.506329,60.189873,272.215190,63.481013,272.215190,67.531646L272.215190,67.531646Z" transform="matrix(1 0 0 1 -29 -17)" fill="none" fill-rule="evenodd" stroke="rgb(82,127,255)" stroke-width="2" stroke-linejoin="round"/><path id="eidnqzl3n1y12" d="M187.784810,239.303797L187.784810,239.303797C187.784810,235.253165,184.493671,232.088608,180.569620,232.088608L180.569620,232.088608L180.569620,232.088608C184.620253,232.088608,187.784810,228.797468,187.784810,224.873418L187.784810,224.873418L187.784810,224.873418C187.784810,228.924051,191.075949,232.088608,195,232.088608L195,232.088608L195,232.088608C190.949367,232.088608,187.784810,235.379747,187.784810,239.303797L187.784810,239.303797Z" fill="none" fill-rule="evenodd" stroke="rgb(82,127,255)" stroke-width="2" stroke-linejoin="round"/><path id="eidnqzl3n1y13" d="M92.215190,222.594937L92.215190,222.594937C92.215190,218.544304,88.924051,215.379747,85,215.379747L85,215.379747L85,215.379747C89.050633,215.379747,92.215190,212.088608,92.215190,208.164557L92.215190,208.164557L92.215190,208.164557C92.215190,212.215190,95.506329,215.379747,99.430380,215.379747L99.430380,215.379747L99.430380,215.379747C95.506329,215.379747,92.215190,218.670886,92.215190,222.594937L92.215190,222.594937Z" transform="matrix(1 0 0 1 -29.13621295999997 -0.77848100000000)" fill="none" fill-rule="evenodd" stroke="rgb(82,127,255)" stroke-width="2" stroke-linejoin="round"/><path id="eidnqzl3n1y14" d="M92.215190,139.430380L92.215190,139.430380C92.215190,135.379747,88.924051,132.215190,85,132.215190L85,132.215190L85,132.215190C89.050633,132.215190,92.215190,128.924051,92.215190,125L92.215190,125L92.215190,125C92.215190,129.050633,95.506329,132.215190,99.430380,132.215190L99.430380,132.215190L99.430380,132.215190C95.506329,132.215190,92.215190,135.506329,92.215190,139.430380L92.215190,139.430380Z" fill="none" fill-rule="evenodd" stroke="rgb(82,127,255)" stroke-width="2" stroke-linejoin="round"/><path id="eidnqzl3n1y15" d="M7.215190,14.430380L7.215190,14.430380C7.215190,10.379747,3.924051,7.215190,0,7.215190L0,7.215190L0,7.215190C4.050633,7.215190,7.215190,3.924051,7.215190,0L7.215190,0L7.215190,0C7.215190,4.050633,10.506329,7.215190,14.430380,7.215190L14.430380,7.215190L14.430380,7.215190C10.506329,7.215190,7.215190,10.506329,7.215190,14.430380L7.215190,14.430380Z" fill="none" fill-rule="evenodd" stroke="rgb(82,127,255)" stroke-width="2" stroke-linejoin="round"/><path id="eidnqzl3n1y16" d="M268.278481,411.025316L268.278481,411.025316C268.278481,406.974684,264.987342,403.810127,261.063291,403.810127L261.063291,403.810127L261.063291,403.810127C265.113924,403.810127,268.278481,400.518987,268.278481,396.594937L268.278481,396.594937L268.278481,396.594937C268.278481,400.645570,271.569620,403.810127,275.493671,403.810127L275.493671,403.810127L275.493671,403.810127C271.443038,403.810127,268.278481,406.974684,268.278481,411.025316L268.278481,411.025316Z" transform="matrix(1 0 0 1 -536.76726299999996 -157.29113999999998)" fill="none" fill-rule="evenodd" stroke="rgb(82,127,255)" stroke-width="2" stroke-linejoin="round"/></g></g></g><g id="eidnqzl3n1y17" display="none" transform="matrix(1 0 0 1 641.41301727000007 297.93285880499991)"><g id="eidnqzl3n1y18" transform="matrix(1 0 0 1 -642 -228)"><g id="eidnqzl3n1y19" transform="matrix(1 0 0 1 644 229)"><path id="eidnqzl3n1y20" d="M53.970765,7.528645C53.970765,7.528645,23.717601,-7.154899,8.780892,4.490671C8.780892,4.490671,-10.459614,13.984342,8.021398,54.870418" fill="none" fill-rule="evenodd" stroke="rgb(255,255,255)" stroke-width="2" stroke-linejoin="round"/><path id="eidnqzl3n1y21" d="M25.110006,82.971683C33.717601,94.490671,47.261905,109.933709,65.616335,124.110924" fill="none" fill-rule="evenodd" stroke="rgb(255,255,255)" stroke-width="2" stroke-linejoin="round"/><path id="eidnqzl3n1y22" d="M97.515069,143.731177C97.515069,143.731177,128.654310,158.794468,144.097348,144.997000C144.097348,144.997000,159.920133,133.984342,143.337854,96.515987" fill="none" fill-rule="evenodd" stroke="rgb(255,255,255)" stroke-width="2" stroke-linejoin="round"/><path id="eidnqzl3n1y23" d="M124.223930,65.756494C115.363170,54.110924,102.072031,39.300797,84.603677,26.009658" fill="none" fill-rule="evenodd" stroke="rgb(255,255,255)" stroke-width="2" stroke-linejoin="round"/><path id="eidnqzl3n1y24" d="M138.021398,63.731177C138.021398,63.731177,120.046715,103.857759,64.603677,138.161557" fill="none" fill-rule="evenodd" stroke="rgb(255,255,255)" stroke-width="2" stroke-linejoin="round"/><path id="eidnqzl3n1y25" d="M53.464436,143.731177C53.464436,143.731177,24.223930,158.161557,8.780892,146.515987C8.780892,146.515987,-10.079868,136.389405,7.515069,97.148899" fill="none" fill-rule="evenodd" stroke="rgb(255,255,255)" stroke-width="2" stroke-linejoin="round"/><path id="eidnqzl3n1y26" d="M13.084689,86.262823C13.084689,86.262823,35.363171,43.224848,84.730259,13.984342" fill="none" fill-rule="evenodd" stroke="rgb(255,255,255)" stroke-width="2" stroke-linejoin="round"/><path id="eidnqzl3n1y27" d="M95.996082,8.034975C95.996082,8.034975,124.983424,-7.787810,143.084689,5.123582C143.084689,5.123582,160.679626,16.769152,143.970765,53.098266" fill="none" fill-rule="evenodd" stroke="rgb(255,255,255)" stroke-width="2" stroke-linejoin="round"/><polygon id="eidnqzl3n1y28" points="75.110006,44.743835 47.894816,58.667886 74.350512,72.465354 101.692284,58.667886" fill="none" fill-rule="evenodd" stroke="rgb(255,255,255)" stroke-width="2" stroke-linejoin="round"/><polygon id="eidnqzl3n1y29" points="47.894816,58.667886 47.894816,93.857759 74.730259,107.655228 74.730259,72.465354" fill="none" fill-rule="evenodd" stroke="rgb(255,255,255)" stroke-width="2" stroke-linejoin="round"/><polygon id="eidnqzl3n1y30" points="101.692284,58.667886 101.692284,93.857759 74.730259,107.655228 74.730259,72.465354" fill="none" fill-rule="evenodd" stroke="rgb(255,255,255)" stroke-width="2" stroke-linejoin="round"/><circle id="eidnqzl3n1y31" r="5.696200" transform="matrix(1 0 0 1 11.56960000000000 91.79750000000000)" fill="none" fill-rule="evenodd" stroke="rgb(255,255,255)" stroke-width="2" stroke-linejoin="round"/><circle id="eidnqzl3n1y32" r="5.696200" transform="matrix(1 0 0 1 11.56960000000000 60.40510000000000)" fill="none" fill-rule="evenodd" stroke="rgb(255,255,255)" stroke-width="2" stroke-linejoin="round"/><circle id="eidnqzl3n1y33" r="5.696200" transform="matrix(1 0 0 1 60.17720000000000 10.65820000000000)" fill="none" fill-rule="evenodd" stroke="rgb(255,255,255)" stroke-width="2" stroke-linejoin="round"/><circle id="eidnqzl3n1y34" r="5.696200" transform="matrix(1 0 0 1 90.93670000000000 10.65820000000000)" fill="none" fill-rule="evenodd" stroke="rgb(255,255,255)" stroke-width="2" stroke-linejoin="round"/><circle id="eidnqzl3n1y35" r="5.696200" transform="matrix(1 0 0 1 141.44300000000001 58.63290000000000)" fill="none" fill-rule="evenodd" stroke="rgb(255,255,255)" stroke-width="2" stroke-linejoin="round"/><circle id="eidnqzl3n1y36" r="5.696200" transform="matrix(1 0 0 1 141.44300000000001 91.29110000000000)" fill="none" fill-rule="evenodd" stroke="rgb(255,255,255)" stroke-width="2" stroke-linejoin="round"/><circle id="eidnqzl3n1y37" r="5.696200" transform="matrix(1 0 0 1 60.17720000000000 140.65799999999999)" fill="none" fill-rule="evenodd" stroke="rgb(255,255,255)" stroke-width="2" stroke-linejoin="round"/><circle id="eidnqzl3n1y38" r="5.696200" transform="matrix(1 0 0 1 93.34180000000001 140.65799999999999)" fill="none" fill-rule="evenodd" stroke="rgb(255,255,255)" stroke-width="2" stroke-linejoin="round"/></g></g></g><g id="eidnqzl3n1y39" transform="matrix(1 0 0 1 213.50363890499966 86.65900245000029)"><g id="eidnqzl3n1y40" transform="matrix(1 0 0 1 -216 -9)"><g id="eidnqzl3n1y41" transform="matrix(1 0 0 1 216 9)"><circle id="eidnqzl3n1y42" r="3" transform="matrix(1 0 0 1 640 357)" fill="none" fill-rule="evenodd" stroke="rgb(255,153,0)" stroke-width="2"/><circle id="eidnqzl3n1y43" r="3" transform="matrix(1 0 0 1 436 119)" fill="none" fill-rule="evenodd" stroke="rgb(255,153,0)" stroke-width="2"/><circle id="eidnqzl3n1y44" r="3" transform="matrix(1 0 0 1 4 58)" fill="none" fill-rule="evenodd" stroke="rgb(255,153,0)" stroke-width="2"/><circle id="eidnqzl3n1y45" r="3" transform="matrix(1 0 0 1 167 264)" fill="none" fill-rule="evenodd" stroke="rgb(255,153,0)" stroke-width="2"/><circle id="eidnqzl3n1y46" r="3" transform="matrix(1 0 0 1 711 150)" fill="none" fill-rule="evenodd" stroke="rgb(255,153,0)" stroke-width="2"/><circle id="eidnqzl3n1y47" r="3" transform="matrix(1 0 0 1 409 445)" fill="none" fill-rule="evenodd" stroke="rgb(255,153,0)" stroke-width="2"/><circle id="eidnqzl3n1y48" r="3" transform="matrix(1 0 0 1 781 4)" fill="none" fill-rule="evenodd" stroke="rgb(255,153,0)" stroke-width="2"/><circle id="eidnqzl3n1y49" r="3" transform="matrix(1 0 0 1 1092 106)" fill="none" fill-rule="evenodd" stroke="rgb(255,153,0)" stroke-width="2"/></g></g></g><g id="eidnqzl3n1y50_tr" transform="translate(723.091459,1080.990106) rotate(40)"><g id="eidnqzl3n1y50" transform="translate(686.785610,-751.818116)"><g id="eidnqzl3n1y51" transform="matrix(1 0 0 1 -1315 -160)"><g id="eidnqzl3n1y52" transform="matrix(1 0 0 1 1316 161)"><g id="eidnqzl3n1y53" transform="matrix(1 0 0 1 0.75212300000000 0.73756600000000)"><g id="eidnqzl3n1y54" transform="matrix(1 0 0 1 12.11110000000000 15.13890000000000)"><path id="eidnqzl3n1y55" d="M30.202083,68.427778L13.170833,51.396528C12.565278,50.790972,12.565278,49.882639,13.170833,49.277083L52.531944,9.915972C53.137500,9.310417,54.045833,9.310417,54.651389,9.915972L71.682639,26.947222C72.288194,27.552778,72.288194,28.461111,71.682639,29.066667L32.321528,68.427778C31.791667,69.033333,30.807639,69.033333,30.202083,68.427778Z" fill="rgb(22,30,45)" fill-rule="evenodd" stroke="rgb(255,255,255)" stroke-width="2" stroke-linejoin="round"/><path id="eidnqzl3n1y56" d="M78.040972,11.884028L80.538889,14.381944C81.447222,15.290278,81.447222,16.728472,80.538889,17.561111L78.343750,19.756250C77.435417,20.664583,75.997222,20.664583,75.164583,19.756250L61.842361,6.434028C60.934028,5.525694,60.934028,4.087500,61.842361,3.254861L64.037500,1.059722C64.945833,0.151389,66.384028,0.151389,67.216667,1.059722L69.714583,3.557639" fill="none" fill-rule="evenodd" stroke="rgb(255,255,255)" stroke-width="2" stroke-linejoin="round"/><g id="eidnqzl3n1y57" transform="matrix(1 0 0 1 60.55560000000000 9.84028000000000)"><line id="eidnqzl3n1y58" x1="5.298611" y1="0.454167" x2="0.075694" y2="5.601389" fill="none" fill-rule="evenodd" stroke="rgb(255,255,255)" stroke-width="2" stroke-linejoin="round"/><line id="eidnqzl3n1y59" x1="10.824306" y1="5.904167" x2="5.601389" y2="11.127083" fill="none" fill-rule="evenodd" stroke="rgb(255,255,255)" stroke-width="2" stroke-linejoin="round"/></g><g id="eidnqzl3n1y60" transform="matrix(1 0 0 1 13.62500000000000 56.77080000000000)"><line id="eidnqzl3n1y61" x1="5.450000" y1="0.302778" x2="0.227083" y2="5.450000" fill="none" fill-rule="evenodd" stroke="rgb(255,255,255)" stroke-width="2" stroke-linejoin="round"/><line id="eidnqzl3n1y62" x1="10.975694" y1="5.752778" x2="5.752778" y2="10.975694" fill="none" fill-rule="evenodd" stroke="rgb(255,255,255)" stroke-width="2" stroke-linejoin="round"/></g><line id="eidnqzl3n1y63" x1="16.274306" y1="65.324306" x2="6.812500" y2="74.861806" fill="none" fill-rule="evenodd" stroke="rgb(255,255,255)" stroke-width="2" stroke-linejoin="round"/><line id="eidnqzl3n1y64" x1="72.439583" y1="6.358333" x2="75.315972" y2="9.159028" fill="none" fill-rule="evenodd" stroke="rgb(255,255,255)" stroke-width="2" stroke-linejoin="round"/><line id="eidnqzl3n1y65" x1="49.504167" y1="24.373611" x2="21.875694" y2="52.077778" fill="none" fill-rule="evenodd" stroke="rgb(82,127,255)" stroke-width="2" stroke-linejoin="round"/><line id="eidnqzl3n1y66" x1="52.380556" y1="21.572917" x2="55.181250" y2="18.696528" fill="none" fill-rule="evenodd" stroke="rgb(82,127,255)" stroke-width="2" stroke-linejoin="round"/><path id="eidnqzl3n1y67" d="M7.796528,76.678472L21.194444,77.056944L21.194444,77.056944C24.752083,73.499306,21.572917,70.774306,16.198611,65.400000C10.824306,60.025694,8.250694,56.695139,4.541667,60.404167L4.920139,73.877778" fill="none" fill-rule="evenodd" stroke="rgb(255,255,255)" stroke-width="2" stroke-linejoin="round"/><circle id="eidnqzl3n1y68" r="4.011810" transform="matrix(1 0 0 1 4.23889000000000 78.19240000000001)" fill="none" fill-rule="evenodd" stroke="rgb(255,255,255)" stroke-width="2" stroke-linejoin="round"/></g><g id="eidnqzl3n1y69" transform="matrix(1 0 0 1 0 18.92360000000000)"><path id="eidnqzl3n1y70" d="M78.116667,89.470833L55.484028,66.838194C54.878472,66.232639,54.878472,65.324306,55.484028,64.718750L64.415972,55.786806C65.021528,55.181250,65.929861,55.181250,66.535417,55.786806L89.168056,78.419444C89.773611,79.025000,89.773611,79.933333,89.168056,80.538889L80.236111,89.470833C79.706250,90.076389,78.722222,90.076389,78.116667,89.470833Z" fill="none" fill-rule="evenodd" stroke="rgb(255,255,255)" stroke-width="2" stroke-linejoin="round"/><path id="eidnqzl3n1y71" d="M23.086806,34.440972L0.454167,11.808333C-0.151389,11.202778,-0.151389,10.294444,0.454167,9.688889L9.386111,0.756944C9.991667,0.151389,10.900000,0.151389,11.505556,0.756944L34.138194,23.389583C34.743750,23.995139,34.743750,24.903472,34.138194,25.509028L25.206250,34.440972C24.600694,35.046528,23.692361,35.046528,23.086806,34.440972Z" fill="none" fill-rule="evenodd" stroke="rgb(255,255,255)" stroke-width="2" stroke-linejoin="round"/><line id="eidnqzl3n1y72" x1="54.500000" y1="54.802778" x2="59.950000" y2="60.252778" fill="none" fill-rule="evenodd" stroke="rgb(255,255,255)" stroke-width="2" stroke-linejoin="round"/><line id="eidnqzl3n1y73" x1="29.142361" y1="29.445139" x2="35.273611" y2="35.576389" fill="none" fill-rule="evenodd" stroke="rgb(255,255,255)" stroke-width="2" stroke-linejoin="round"/><line id="eidnqzl3n1y74" x1="23.843750" y1="22.102778" x2="17.788194" y2="28.158333" fill="none" fill-rule="evenodd" stroke="rgb(255,255,255)" stroke-width="2" stroke-linejoin="round"/><line id="eidnqzl3n1y75" x1="18.318056" y1="16.652778" x2="12.338194" y2="22.632639" fill="none" fill-rule="evenodd" stroke="rgb(255,255,255)" stroke-width="2" stroke-linejoin="round"/><line id="eidnqzl3n1y76" x1="12.868056" y1="11.127083" x2="6.812500" y2="17.182639" fill="none" fill-rule="evenodd" stroke="rgb(255,255,255)" stroke-width="2" stroke-linejoin="round"/><line id="eidnqzl3n1y77" x1="78.949306" y1="77.056944" x2="72.893750" y2="83.112500" fill="none" fill-rule="evenodd" stroke="rgb(255,255,255)" stroke-width="2" stroke-linejoin="round"/><line id="eidnqzl3n1y78" x1="73.499306" y1="71.606944" x2="67.443750" y2="77.586806" fill="none" fill-rule="evenodd" stroke="rgb(255,255,255)" stroke-width="2" stroke-linejoin="round"/><line id="eidnqzl3n1y79" x1="67.973611" y1="66.081250" x2="61.993750" y2="72.136806" fill="none" fill-rule="evenodd" stroke="rgb(255,255,255)" stroke-width="2" stroke-linejoin="round"/></g><g id="eidnqzl3n1y80" transform="matrix(1 0 0 1 18.92360000000000 0)"><path id="eidnqzl3n1y81" d="M78.495139,89.168056L55.862500,66.535417C55.256944,65.929861,55.256944,65.021528,55.862500,64.415972L64.794444,55.484028C65.400000,54.878472,66.308333,54.878472,66.913889,55.484028L89.546528,78.116667C90.152083,78.722222,90.152083,79.630556,89.546528,80.236111L80.614583,89.168056C80.009028,89.773611,79.100694,89.773611,78.495139,89.168056Z" fill="none" fill-rule="evenodd" stroke="rgb(255,255,255)" stroke-width="2" stroke-linejoin="round"/><path id="eidnqzl3n1y82" d="M23.389583,34.062500L0.756944,11.505556C0.151389,10.900000,0.151389,9.991667,0.756944,9.386111L9.688889,0.454167C10.294444,-0.151389,11.202778,-0.151389,11.808333,0.454167L34.440972,23.086806C35.046528,23.692361,35.046528,24.600694,34.440972,25.206250L25.584722,34.062500C24.979167,34.668056,23.995139,34.668056,23.389583,34.062500Z" fill="none" fill-rule="evenodd" stroke="rgb(255,255,255)" stroke-width="2" stroke-linejoin="round"/><line id="eidnqzl3n1y83" x1="54.878472" y1="54.500000" x2="60.328472" y2="59.950000" fill="none" fill-rule="evenodd" stroke="rgb(255,255,255)" stroke-width="2" stroke-linejoin="round"/><line id="eidnqzl3n1y84" x1="29.445139" y1="29.066667" x2="35.727778" y2="35.349306" fill="none" fill-rule="evenodd" stroke="rgb(255,255,255)" stroke-width="2" stroke-linejoin="round"/><line id="eidnqzl3n1y85" x1="24.600694" y1="21.421528" x2="17.712500" y2="28.309722" fill="none" fill-rule="evenodd" stroke="rgb(255,255,255)" stroke-width="2" stroke-linejoin="round"/><line id="eidnqzl3n1y86" x1="19.150694" y1="15.971528" x2="12.111111" y2="22.935417" fill="none" fill-rule="evenodd" stroke="rgb(255,255,255)" stroke-width="2" stroke-linejoin="round"/><line id="eidnqzl3n1y87" x1="13.625000" y1="10.445833" x2="6.736806" y2="17.409722" fill="none" fill-rule="evenodd" stroke="rgb(255,255,255)" stroke-width="2" stroke-linejoin="round"/><line id="eidnqzl3n1y88" x1="79.554861" y1="76.375694" x2="72.590972" y2="83.339583" fill="none" fill-rule="evenodd" stroke="rgb(255,255,255)" stroke-width="2" stroke-linejoin="round"/><line id="eidnqzl3n1y89" x1="74.029167" y1="70.925694" x2="67.216667" y2="77.738194" fill="none" fill-rule="evenodd" stroke="rgb(255,255,255)" stroke-width="2" stroke-linejoin="round"/><line id="eidnqzl3n1y90" x1="68.579167" y1="65.400000" x2="61.690972" y2="72.288194" fill="none" fill-rule="evenodd" stroke="rgb(255,255,255)" stroke-width="2" stroke-linejoin="round"/></g></g></g></g></g></g><g id="eidnqzl3n1y91" transform="matrix(2.81735779951160 0 0 2.81735779951160 628.84455041562876 287.88968647562882)"><path id="eidnqzl3n1y92" d="M19.707000,45.707000L18.293000,44.293000L6,56.586000L6,50L4,50L4,59C4,59.552000,4.447000,60,5,60L14,60L14,58L7.414000,58L19.707000,45.707000ZM59,4L50,4L50,6L56.586000,6L44.293000,18.293000L45.707000,19.707000L58,7.414000L58,14L60,14L60,5C60,4.448000,59.553000,4,59,4L59,4ZM35,51L51,51L51,35L35,35L35,51ZM53,34L53,52C53,52.552000,52.553000,53,52,53L34,53C33.447000,53,33,52.552000,33,52L33,34C33,33.448000,33.447000,33,34,33L52,33C52.553000,33,53,33.448000,53,34L53,34ZM13,29L29,29L29,13L13,13L13,29ZM31,12L31,30C31,30.552000,30.553000,31,30,31L12,31C11.447000,31,11,30.552000,11,30L11,12C11,11.448000,11.447000,11,12,11L30,11C30.553000,11,31,11.448000,31,12L31,12ZM30,33L12,33C11.447000,33,11,33.448000,11,34L11,48.757000L13,46.757000L13,35L29,35L29,51L17.242000,51L15.242000,53L30,53C30.553000,53,31,52.552000,31,52L31,34C31,33.448000,30.553000,33,30,33L30,33ZM51,17.242000L53,15.242000L53,30C53,30.552000,52.553000,31,52,31L34,31C33.447000,31,33,30.552000,33,30L33,12C33,11.448000,33.447000,11,34,11L48.758000,11L46.758000,13L35,13L35,29L51,29L51,17.242000Z" fill="rgb(255,255,255)" fill-rule="evenodd" stroke="none" stroke-width="1"/></g></svg>