<svg id="eu704q77y5181" xmlns="http://www.w3.org/2000/svg" xmlns:xlink="http://www.w3.org/1999/xlink" viewBox="0 0 1438 570" shape-rendering="geometricPrecision" text-rendering="geometricPrecision"><style><![CDATA[#eu704q77y5186 {animation: eu704q77y5186_c_o 15000ms linear infinite normal forwards}@keyframes eu704q77y5186_c_o { 0% {opacity: 1} 37.333333% {opacity: 1} 39.333333% {opacity: 0.340000} 41.333333% {opacity: 1} 63.533333% {opacity: 1} 65.333333% {opacity: 0.360000} 67.333333% {opacity: 1} 93.333333% {opacity: 1} 95.333333% {opacity: 0.360000} 97.333333% {opacity: 1} 100% {opacity: 1} }#eu704q77y5187 {animation: eu704q77y5187_c_o 15000ms linear infinite normal forwards}@keyframes eu704q77y5187_c_o { 0% {opacity: 1} 22.666667% {opacity: 1} 24% {opacity: 0.480000} 25.333333% {opacity: 1} 78% {opacity: 1} 79.333333% {opacity: 0.480000} 80.666667% {opacity: 1} 100% {opacity: 1} }#eu704q77y5188 {animation: eu704q77y5188_c_o 15000ms linear infinite normal forwards}@keyframes eu704q77y5188_c_o { 0% {opacity: 1} 1.333333% {opacity: 1} 2.666667% {opacity: 0.160000} 4% {opacity: 1} 42% {opacity: 1} 43.333333% {opacity: 0.240000} 44.666667% {opacity: 1} 68.666667% {opacity: 1} 70% {opacity: 0.120000} 71.333333% {opacity: 1} 100% {opacity: 1} }#eu704q77y5189 {animation: eu704q77y5189_c_o 15000ms linear infinite normal forwards}@keyframes eu704q77y5189_c_o { 0% {opacity: 1} 16% {opacity: 1} 17.333333% {opacity: 0.480000} 18.666667% {opacity: 1} 50% {opacity: 1} 51.333333% {opacity: 0.620000} 52.666667% {opacity: 1} 100% {opacity: 1} }#eu704q77y51811 {animation: eu704q77y51811_c_o 15000ms linear infinite normal forwards}@keyframes eu704q77y51811_c_o { 0% {opacity: 1} 11.333333% {opacity: 1} 12.666667% {opacity: 0.320000} 14% {opacity: 1} 32.533333% {opacity: 1} 33.866667% {opacity: 0.380000} 35.333333% {opacity: 1} 59% {opacity: 1} 60.666667% {opacity: 0.440000} 62% {opacity: 1} 86.933333% {opacity: 1} 88.666667% {opacity: 0.340000} 90% {opacity: 1} 100% {opacity: 1} }#eu704q77y51812 {animation: eu704q77y51812_c_o 15000ms linear infinite normal forwards}@keyframes eu704q77y51812_c_o { 0% {opacity: 1} 20% {opacity: 1} 21.333333% {opacity: 0} 22.666667% {opacity: 1} 84% {opacity: 1} 85.333333% {opacity: 0.600000} 86.666667% {opacity: 1} 100% {opacity: 1} }#eu704q77y51813 {animation: eu704q77y51813_c_o 15000ms linear infinite normal forwards}@keyframes eu704q77y51813_c_o { 0% {opacity: 1} 52.666667% {opacity: 1} 54% {opacity: 0.220000} 55.333333% {opacity: 1} 100% {opacity: 1} }]]></style><rect id="eu704q77y5182" display="none" width="1438" height="600" rx="0" ry="0" transform="matrix(1 0 0 1 1.38943457000039 -0.84088233000028)" fill="rgb(22,30,45)" stroke="none" stroke-width="1"/><g id="eu704q77y5183" transform="matrix(1 0 0 1 538.31381456500071 230.52573644999990)"><g id="eu704q77y5184" transform="matrix(1 0 0 1 -534 -163)"><g id="eu704q77y5185" transform="matrix(1 0 0 1 535.50599999999997 164.53200000000001)"><path id="eu704q77y5186" d="M720.215190,329.430380L720.215190,329.430380C720.215190,325.379747,716.924051,322.215190,713,322.215190L713,322.215190L713,322.215190C717.050633,322.215190,720.215190,318.924051,720.215190,315L720.215190,315L720.215190,315C720.215190,319.050633,723.506329,322.215190,727.430380,322.215190L727.430380,322.215190L727.430380,322.215190C723.506329,322.215190,720.215190,325.506329,720.215190,329.430380L720.215190,329.430380Z" fill="none" fill-rule="evenodd" stroke="rgb(82,127,255)" stroke-width="2" stroke-linejoin="round"/><path id="eu704q77y5187" d="M276.772152,134.493671L276.772152,134.493671C276.772152,130.443038,273.481013,127.278481,269.556962,127.278481L269.556962,127.278481L269.556962,127.278481C273.607595,127.278481,276.772152,123.987342,276.772152,120.063291L276.772152,120.063291L276.772152,120.063291C276.772152,124.113924,280.063291,127.278481,283.987342,127.278481L283.987342,127.278481L283.987342,127.278481C279.936709,127.278481,276.772152,130.443038,276.772152,134.493671L276.772152,134.493671Z" fill="none" fill-rule="evenodd" stroke="rgb(82,127,255)" stroke-width="2" stroke-linejoin="round"/><path id="eu704q77y5188" d="M272.215190,67.531646L272.215190,67.531646C272.215190,63.481013,268.924051,60.316456,265,60.316456L265,60.316456L265,60.316456C269.050633,60.316456,272.215190,57.025317,272.215190,53.101266L272.215190,53.101266L272.215190,53.101266C272.215190,57.151899,275.506329,60.316456,279.430380,60.316456L279.430380,60.316456L279.430380,60.316456C275.506329,60.189873,272.215190,63.481013,272.215190,67.531646L272.215190,67.531646Z" transform="matrix(1 0 0 1 -29 -17)" fill="none" fill-rule="evenodd" stroke="rgb(82,127,255)" stroke-width="2" stroke-linejoin="round"/><path id="eu704q77y5189" d="M187.784810,239.303797L187.784810,239.303797C187.784810,235.253165,184.493671,232.088608,180.569620,232.088608L180.569620,232.088608L180.569620,232.088608C184.620253,232.088608,187.784810,228.797468,187.784810,224.873418L187.784810,224.873418L187.784810,224.873418C187.784810,228.924051,191.075949,232.088608,195,232.088608L195,232.088608L195,232.088608C190.949367,232.088608,187.784810,235.379747,187.784810,239.303797L187.784810,239.303797Z" fill="none" fill-rule="evenodd" stroke="rgb(82,127,255)" stroke-width="2" stroke-linejoin="round"/><path id="eu704q77y51810" d="M92.215190,222.594937L92.215190,222.594937C92.215190,218.544304,88.924051,215.379747,85,215.379747L85,215.379747L85,215.379747C89.050633,215.379747,92.215190,212.088608,92.215190,208.164557L92.215190,208.164557L92.215190,208.164557C92.215190,212.215190,95.506329,215.379747,99.430380,215.379747L99.430380,215.379747L99.430380,215.379747C95.506329,215.379747,92.215190,218.670886,92.215190,222.594937L92.215190,222.594937Z" transform="matrix(1 0 0 1 -29.13621295999997 -0.77848100000000)" fill="none" fill-rule="evenodd" stroke="rgb(82,127,255)" stroke-width="2" stroke-linejoin="round"/><path id="eu704q77y51811" d="M92.215190,139.430380L92.215190,139.430380C92.215190,135.379747,88.924051,132.215190,85,132.215190L85,132.215190L85,132.215190C89.050633,132.215190,92.215190,128.924051,92.215190,125L92.215190,125L92.215190,125C92.215190,129.050633,95.506329,132.215190,99.430380,132.215190L99.430380,132.215190L99.430380,132.215190C95.506329,132.215190,92.215190,135.506329,92.215190,139.430380L92.215190,139.430380Z" fill="none" fill-rule="evenodd" stroke="rgb(82,127,255)" stroke-width="2" stroke-linejoin="round"/><path id="eu704q77y51812" d="M7.215190,14.430380L7.215190,14.430380C7.215190,10.379747,3.924051,7.215190,0,7.215190L0,7.215190L0,7.215190C4.050633,7.215190,7.215190,3.924051,7.215190,0L7.215190,0L7.215190,0C7.215190,4.050633,10.506329,7.215190,14.430380,7.215190L14.430380,7.215190L14.430380,7.215190C10.506329,7.215190,7.215190,10.506329,7.215190,14.430380L7.215190,14.430380Z" fill="none" fill-rule="evenodd" stroke="rgb(82,127,255)" stroke-width="2" stroke-linejoin="round"/><path id="eu704q77y51813" d="M268.278481,411.025316L268.278481,411.025316C268.278481,406.974684,264.987342,403.810127,261.063291,403.810127L261.063291,403.810127L261.063291,403.810127C265.113924,403.810127,268.278481,400.518987,268.278481,396.594937L268.278481,396.594937L268.278481,396.594937C268.278481,400.645570,271.569620,403.810127,275.493671,403.810127L275.493671,403.810127L275.493671,403.810127C271.443038,403.810127,268.278481,406.974684,268.278481,411.025316L268.278481,411.025316Z" transform="matrix(1 0 0 1 -536.76726299999996 -157.29113999999998)" fill="none" fill-rule="evenodd" stroke="rgb(82,127,255)" stroke-width="2" stroke-linejoin="round"/></g></g></g><g id="eu704q77y51814" transform="matrix(1 0 0 1 213.50363890499966 86.65900245000029)"><g id="eu704q77y51815" transform="matrix(1 0 0 1 -216 -9)"><g id="eu704q77y51816" transform="matrix(1 0 0 1 216 9)"><circle id="eu704q77y51817" r="3" transform="matrix(1 0 0 1 640 357)" fill="none" fill-rule="evenodd" stroke="rgb(255,153,0)" stroke-width="2"/><circle id="eu704q77y51818" r="3" transform="matrix(1 0 0 1 436 119)" fill="none" fill-rule="evenodd" stroke="rgb(255,153,0)" stroke-width="2"/><circle id="eu704q77y51819" r="3" transform="matrix(1 0 0 1 4 58)" fill="none" fill-rule="evenodd" stroke="rgb(255,153,0)" stroke-width="2"/><circle id="eu704q77y51820" r="3" transform="matrix(1 0 0 1 167 264)" fill="none" fill-rule="evenodd" stroke="rgb(255,153,0)" stroke-width="2"/><circle id="eu704q77y51821" r="3" transform="matrix(1 0 0 1 711 150)" fill="none" fill-rule="evenodd" stroke="rgb(255,153,0)" stroke-width="2"/><circle id="eu704q77y51822" r="3" transform="matrix(1 0 0 1 409 445)" fill="none" fill-rule="evenodd" stroke="rgb(255,153,0)" stroke-width="2"/><circle id="eu704q77y51823" r="3" transform="matrix(1 0 0 1 781 4)" fill="none" fill-rule="evenodd" stroke="rgb(255,153,0)" stroke-width="2"/><circle id="eu704q77y51824" r="3" transform="matrix(1 0 0 1 1092 106)" fill="none" fill-rule="evenodd" stroke="rgb(255,153,0)" stroke-width="2"/></g></g></g><g id="eu704q77y51825" transform="matrix(2.81735779951160 0 0 2.81735779951160 628.84455041562876 287.88968647562882)"><path id="eu704q77y51826" d="M19.707000,45.707000L18.293000,44.293000L6,56.586000L6,50L4,50L4,59C4,59.552000,4.447000,60,5,60L14,60L14,58L7.414000,58L19.707000,45.707000ZM59,4L50,4L50,6L56.586000,6L44.293000,18.293000L45.707000,19.707000L58,7.414000L58,14L60,14L60,5C60,4.448000,59.553000,4,59,4L59,4ZM35,51L51,51L51,35L35,35L35,51ZM53,34L53,52C53,52.552000,52.553000,53,52,53L34,53C33.447000,53,33,52.552000,33,52L33,34C33,33.448000,33.447000,33,34,33L52,33C52.553000,33,53,33.448000,53,34L53,34ZM13,29L29,29L29,13L13,13L13,29ZM31,12L31,30C31,30.552000,30.553000,31,30,31L12,31C11.447000,31,11,30.552000,11,30L11,12C11,11.448000,11.447000,11,12,11L30,11C30.553000,11,31,11.448000,31,12L31,12ZM30,33L12,33C11.447000,33,11,33.448000,11,34L11,48.757000L13,46.757000L13,35L29,35L29,51L17.242000,51L15.242000,53L30,53C30.553000,53,31,52.552000,31,52L31,34C31,33.448000,30.553000,33,30,33L30,33ZM51,17.242000L53,15.242000L53,30C53,30.552000,52.553000,31,52,31L34,31C33.447000,31,33,30.552000,33,30L33,12C33,11.448000,33.447000,11,34,11L48.758000,11L46.758000,13L35,13L35,29L51,29L51,17.242000Z" fill="rgb(255,255,255)" fill-rule="evenodd" stroke="none" stroke-width="1"/></g></svg>