<?xml version="1.0" encoding="UTF-8"?>
<svg width="88px" height="88px" viewBox="0 0 88 88" version="1.1" xmlns="http://www.w3.org/2000/svg" xmlns:xlink="http://www.w3.org/1999/xlink">
    <title>docs_icon_padding</title>
    <g id="Page-1" stroke="none" stroke-width="1" fill="none" fill-rule="evenodd">
        <g id="ar-hello-world-v3-git" transform="translate(-1065.000000, -736.000000)">
            <g id="docs_icon_padding" transform="translate(1065.000000, 736.000000)">
                <rect id="Rectangle" x="0" y="0" width="88" height="88"></rect>
                <path d="M20.528561,76.4699598 L20.528561,11.8814352 C20.528561,10.8634025 21.3832122,10.0150418 22.4087936,10.0150418 L52.4925145,10.0150418 L68.5029796,25.9076647 L68.5029796,76.4699598 C68.5029796,77.4879926 67.6483285,78.3363533 66.6227471,78.3363533 L22.4087936,78.3363533 C21.3832122,78.3363533 20.528561,77.4879926 20.528561,76.4699598 Z" id="Path" stroke="#FFFFFF" stroke-width="2" stroke-linejoin="round"></path>
                <polygon id="Path" stroke="#FFFFFF" stroke-width="2" stroke-linejoin="round" points="52.4925145 25.9076647 68.5029796 25.9076647 52.4925145 10.0150418"></polygon>
                <line x1="27.5936773" y1="38.7461893" x2="61.4378633" y2="38.7461893" id="Path" stroke="#527FFF" stroke-width="2" stroke-linejoin="round"></line>
                <line x1="27.5936773" y1="48.0215992" x2="61.4378633" y2="48.0215992" id="Path" stroke="#527FFF" stroke-width="2" stroke-linejoin="round"></line>
                <line x1="27.5936773" y1="57.3535664" x2="61.4378633" y2="57.3535664" id="Path" stroke="#527FFF" stroke-width="2" stroke-linejoin="round"></line>
                <line x1="27.5936773" y1="66.6855336" x2="61.4378633" y2="66.6855336" id="Path" stroke="#527FFF" stroke-width="2" stroke-linejoin="round"></line>
                <line x1="27.5936773" y1="29.4142221" x2="46.7948401" y2="29.4142221" id="Path" stroke="#527FFF" stroke-width="2" stroke-linejoin="round"></line>
            </g>
        </g>
    </g>
</svg>