<?xml version="1.0" encoding="UTF-8"?>
<svg width="32px" height="32px" viewBox="0 0 32 32" version="1.1" xmlns="http://www.w3.org/2000/svg" xmlns:xlink="http://www.w3.org/1999/xlink">
    <title>Icon-Service/32/AWS-Fusion_32</title>
    <g id="Icon-Service/32/AWS-Fusion_32" stroke="none" stroke-width="1" fill="none" fill-rule="evenodd">
        <path d="M10.163,22.544 L9.456,21.837 L3,28.293 L3,25 L2,25 L2,29.5 C2,29.776 2.224,30 2.5,30 L7,30 L7,29 L3.707,29 L10.163,22.544 Z M29.5,2 L25,2 L25,3 L28.293,3 L22.146,9.147 L22.853,9.854 L29,3.707 L29,7 L30,7 L30,2.5 C30,2.224 29.776,2 29.5,2 L29.5,2 Z M18,26 L26,26 L26,18 L18,18 L18,26 Z M27,17.5 L27,26.5 C27,26.776 26.776,27 26.5,27 L17.5,27 C17.224,27 17,26.776 17,26.5 L17,17.5 C17,17.224 17.224,17 17.5,17 L26.5,17 C26.776,17 27,17.224 27,17.5 L27,17.5 Z M6,14 L14,14 L14,6 L6,6 L6,14 Z M15,5.5 L15,14.5 C15,14.776 14.776,15 14.5,15 L5.5,15 C5.224,15 5,14.776 5,14.5 L5,5.5 C5,5.224 5.224,5 5.5,5 L14.5,5 C14.776,5 15,5.224 15,5.5 L15,5.5 Z M14.5,17 L5.5,17 C5.224,17 5,17.224 5,17.5 L5,24.172 L6,23.172 L6,18 L14,18 L14,26 L8.828,26 L7.828,27 L14.5,27 C14.776,27 15,26.776 15,26.5 L15,17.5 C15,17.224 14.776,17 14.5,17 L14.5,17 Z M26,8.828 L27,7.828 L27,14.5 C27,14.776 26.776,15 26.5,15 L17.5,15 C17.224,15 17,14.776 17,14.5 L17,5.5 C17,5.224 17.224,5 17.5,5 L24.172,5 L23.172,6 L18,6 L18,14 L26,14 L26,8.828 Z" id="Fill-3" fill="#232F3E"></path>
    </g>
</svg>