<?xml version="1.0" encoding="UTF-8"?>
<svg width="80px" height="80px" viewBox="0 0 80 80" version="1.1" xmlns="http://www.w3.org/2000/svg" xmlns:xlink="http://www.w3.org/1999/xlink">
    <title>twitter_icon_padding</title>
    <g id="Page-1" stroke="none" stroke-width="1" fill="none" fill-rule="evenodd">
        <g id="ar-hello-world-v3" transform="translate(-293.000000, -740.000000)">
            <g id="twitter_icon_padding" transform="translate(293.000000, 740.000000)">
                <path d="M65.2663116,22.4417077 C68.0785619,20.7881773 70.1877497,18.1773399 71.2423435,15.044335 C68.6058589,16.6108374 65.7057257,17.6551724 62.6298269,18.2643678 C60.1691079,15.6535304 56.6537949,14 52.7869507,14 C45.3169108,14 39.252996,20.0049261 39.252996,27.4022989 C39.252996,28.4466338 39.3408788,29.4909688 39.6045273,30.4482759 C28.355526,29.9261084 18.424767,24.5303777 11.7456724,16.4367816 C10.6031957,18.4384236 9.90013316,20.7011494 9.90013316,23.137931 C9.90013316,27.7504105 12.2729694,31.8407225 15.8761651,34.2775041 C13.6790945,34.1904762 11.5699068,33.5812808 9.72436751,32.6239737 C9.72436751,32.7110016 9.72436751,32.7110016 9.72436751,32.7980296 C9.72436751,39.2380952 14.3821571,44.7208539 20.5339547,45.9392447 C19.391478,46.2873563 18.2490013,46.3743842 16.930759,46.3743842 C16.0519308,46.3743842 15.1731025,46.2873563 14.3821571,46.1133005 C16.1398136,51.4220033 21.0612517,55.3382594 27.0372836,55.4252874 C22.379494,58.9934319 16.5792277,61.1691297 10.2516644,61.1691297 C9.19707057,61.1691297 8.05459387,61.0821018 7,60.9950739 C12.976032,64.8243021 20.0945406,67 27.7403462,67 C52.6111851,67 66.1451398,46.635468 66.1451398,28.9688013 C66.1451398,28.3596059 66.1451398,27.8374384 66.1451398,27.228243 C68.8695073,25.4006568 71.1544607,23.0509031 73,20.3530378 C70.539281,21.3973727 67.9906791,22.0935961 65.2663116,22.4417077 Z" id="twitter_icon" stroke="#FFFFFF" stroke-width="2" stroke-linecap="round" stroke-linejoin="round"></path>
                <rect id="Rectangle" x="0" y="0" width="80" height="80"></rect>
            </g>
        </g>
    </g>
</svg>