<?xml version="1.0" encoding="UTF-8"?>
<svg width="88px" height="88px" viewBox="0 0 88 88" version="1.1" xmlns="http://www.w3.org/2000/svg" xmlns:xlink="http://www.w3.org/1999/xlink">
    <title>workshop_icon_padding</title>
    <g id="Page-1" stroke="none" stroke-width="1" fill="none" fill-rule="evenodd">
        <g id="ar-hello-world-v3-git" transform="translate(-675.000000, -736.000000)">
            <g id="workshop_icon_padding" transform="translate(675.000000, 736.000000)">
                <g id="Group" transform="translate(33.074327, 15.461562)" stroke="#FFFFFF" stroke-linejoin="round" stroke-width="2">
                    <line x1="20.5883117" y1="18.6608696" x2="20.5883117" y2="31.4768116" id="Path"></line>
                    <line x1="36.2181818" y1="19.0362319" x2="39.4519481" y2="32.2275362" id="Path"></line>
                    <g id="Path">
                        <line x1="0.107792208" y1="0.375362319" x2="8.3538961" y2="0.375362319"></line>
                        <polyline points="2.8025974 30.8869565 2.8025974 15.4971014 5.65909091 15.4971014 5.65909091 30.2971014"></polyline>
                    </g>
                </g>
                <g id="Group" transform="translate(10.437963, 7.954316)" stroke="#FFFFFF" stroke-linejoin="round" stroke-width="2">
                    <g transform="translate(0.000000, 13.942029)" id="Path">
                        <path d="M5.87467532,53.4623188 L1.23961039,53.4623188 C0.592857143,53.4623188 0.0538961039,52.926087 0.0538961039,52.2826087 L0.0538961039,41.3971014"></path>
                        <path d="M0.0538961039,30.2971014 L0.0538961039,1.55507246 C0.0538961039,0.911594203 0.592857143,0.375362319 1.23961039,0.375362319 L14.9831169,0.375362319 C15.6298701,0.375362319 16.1688312,0.911594203 16.1688312,1.55507246"></path>
                        <line x1="8.08441558" y1="15.926087" x2="8.08441558" y2="28.3666667"></line>
                    </g>
                    <path d="M37.5116883,37.8043478 L37.5116883,6.27391304 C37.5116883,5.63043478 38.0506494,5.0942029 38.6974026,5.0942029 L47.6441558,5.0942029 C48.2909091,5.0942029 48.8298701,5.63043478 48.8298701,6.27391304 L48.8298701,38.984058" id="Path"></path>
                    <g transform="translate(49.045455, 4.826087)" id="Path">
                        <path d="M23.2292208,49.9231884 L25.4928571,59.2 C25.6545455,59.8434783 25.2772727,60.4869565 24.6305195,60.6478261 L15.9532468,62.7391304 C15.3064935,62.9 14.6597403,62.5246377 14.4980519,61.8811594 L12.0188312,51.6927536"></path>
                        <path d="M7.43766234,32.9782609 L0.269480519,3.64637681 C0.107792208,3.00289855 0.485064935,2.35942029 1.13181818,2.19855072 L9.80909091,0.107246377 C10.4558442,-0.0536231884 11.1025974,0.32173913 11.2642857,0.965217391 L20.1032468,37.0536232"></path>
                    </g>
                    <g transform="translate(16.168831, 0.000000)" id="Path">
                        <path d="M0.0538961039,40.8072464 L0.0538961039,1.66231884 C0.0538961039,1.01884058 0.592857143,0.482608696 1.23961039,0.482608696 L20.1571429,0.482608696 C20.8038961,0.482608696 21.3428571,1.01884058 21.3428571,1.66231884 L21.3428571,37.8043478"></path>
                        <line x1="6.57532468" y1="5.0942029" x2="14.8214286" y2="5.0942029"></line>
                    </g>
                </g>
                <g id="Graduation_Cap_1_" transform="translate(2.623028, 48.774968)" stroke="#527FFF" stroke-linejoin="round" stroke-width="2">
                    <path d="M22.6902597,15.6981884 C20.3188312,19.7199275 18.6480519,24.2778986 17.7857143,28.5141304 C24.4149351,31.6778986 32.2298701,32.6967391 40.5837662,32.6967391 C48.9376623,32.6967391 56.7525974,31.6778986 63.3818182,28.5141304 C62.5733766,24.4387681 61.0103896,20.148913 58.8006494,16.2344203" id="Path"></path>
                    <path d="M38.4279221,28.4605072 C39.1285714,28.4605072 39.8831169,28.4605072 40.5837662,28.4605072 C47.212987,28.4605072 53.5188312,27.817029 59.124026,25.9938406" id="Path"></path>
                    <path d="M31.4753247,28.0315217 C33.1461039,28.2460145 34.8168831,28.3532609 36.5415584,28.4068841" id="Path"></path>
                    <path d="M21.8818182,25.9402174 C24.1993506,26.7445652 26.6785714,27.2807971 29.2116883,27.6561594" id="Path"></path>
                    <path d="M61.1720779,4.49094203 L82.3532468,9.15615942 L41.4461039,16.7706522 C41.2844156,16.8242754 41.0688312,16.8242754 40.9071429,16.7706522 L0,9.15615942 L40.8532468,0.0402173913 C41.0688312,-0.0134057971 41.2844156,-0.0134057971 41.5,0.0402173913 L54.1116883,2.93586957" id="Path"></path>
                    <path d="M44.625974,7.65471014 L68.9331169,2.88224638 L64.0824675,1.11268116 C63.9746753,1.05905797 63.8668831,1.05905797 63.7590909,1.11268116 L43.5480519,5.02717391" id="Path"></path>
                    <ellipse id="Oval" cx="41.3383117" cy="6.68949275" rx="3.66493506" ry="2.03768116"></ellipse>
                </g>
                <rect id="Rectangle" x="0" y="0" width="88" height="88"></rect>
                <line x1="10.8152359" y1="30.6369244" x2="26.2834177" y2="30.6369244" id="Path" stroke="#FFFFFF" stroke-width="2" stroke-linejoin="round"></line>
                <line x1="10.8152359" y1="34.8195331" x2="26.2834177" y2="34.8195331" id="Path" stroke="#FFFFFF" stroke-width="2" stroke-linejoin="round"></line>
                <line x1="47.9496515" y1="18.2499679" x2="59.2139372" y2="18.2499679" id="Path" stroke="#FFFFFF" stroke-width="2" stroke-linejoin="round"></line>
                <line x1="47.9496515" y1="22.4325766" x2="59.2139372" y2="22.4325766" id="Path" stroke="#FFFFFF" stroke-width="2" stroke-linejoin="round"></line>
                <line x1="10.4918593" y1="67.9050404" x2="17.9295216" y2="67.9050404" id="Path" stroke="#FFFFFF" stroke-width="2" stroke-linejoin="round"></line>
                <line x1="10.4918593" y1="72.0876491" x2="16.7977034" y2="72.0876491" id="Path" stroke="#FFFFFF" stroke-width="2" stroke-linejoin="round"></line>
            </g>
        </g>
    </g>
</svg>